<svg width="79" height="36" viewBox="0 0 79 36" fill="none" xmlns="http://www.w3.org/2000/svg">
<path d="M0 0V24.6911C0 24.6911 -3.04819e-07 27.328 1.67804 29.6453C1.67804 29.6453 13.9836 20.536 13.9836 11.4266C13.9836 2.31729 0 0 0 0Z" fill="url(#paint0_linear_5_12418)"/>
<path d="M2.23828 30.5241C2.23828 30.5241 2.55791 31.0035 2.95744 31.4031C2.95744 31.4031 24.9317 27.4877 24.9317 6.15264C24.9317 6.15264 21.0163 4.95404 16.7013 9.26899C16.7013 9.26899 18.3794 17.7391 2.23828 30.5241Z" fill="url(#paint1_linear_5_12418)"/>
<path d="M3.35547 32.1222C3.35547 32.1222 8.14986 37.2362 15.5012 34.2797C22.8526 31.3231 22.1335 22.8531 22.1335 21.7344C22.1335 21.7344 15.3414 29.725 3.35547 32.1222Z" fill="#288BC3"/>
<path d="M26.4844 22.5904V14.9707H28.0356V21.296H31.8927V22.5904H26.4844Z" fill="#242424"/>
<path d="M32.9688 22.5904V14.9077H35.4581C36.4014 14.9077 37.0163 14.9462 37.3027 15.023C37.7429 15.1383 38.1114 15.3891 38.4085 15.775C38.7054 16.1611 38.8539 16.6598 38.8539 17.2712C38.8539 17.7428 38.7683 18.1394 38.5971 18.4608C38.4259 18.7823 38.2085 19.0346 37.9447 19.2181C37.6808 19.4015 37.4127 19.523 37.1403 19.5823C36.7699 19.6557 36.2336 19.6924 35.5314 19.6924H34.52V22.5904H32.9688ZM34.5201 16.2074V18.3875H35.3691C35.9804 18.3875 36.3892 18.3474 36.5954 18.267C36.8015 18.1867 36.963 18.0609 37.0801 17.8897C37.1971 17.7185 37.2556 17.5194 37.2556 17.2922C37.2556 17.0128 37.1735 16.7822 37.0093 16.6005C36.845 16.4188 36.6373 16.3053 36.3856 16.2598C36.2004 16.2249 35.8284 16.2074 35.2694 16.2074H34.5201Z" fill="#242424"/>
<path d="M40.0196 22.5904V14.9077H42.5089C43.4521 14.9077 44.067 14.9462 44.3535 15.023C44.7937 15.1383 45.1622 15.3891 45.4592 15.775C45.7562 16.1611 45.9047 16.6598 45.9047 17.2712C45.9047 17.7428 45.8191 18.1394 45.6479 18.4608C45.4767 18.7823 45.2592 19.0346 44.9955 19.2181C44.7316 19.4015 44.4635 19.523 44.191 19.5823C43.8207 19.6557 43.2844 19.6924 42.5822 19.6924H41.5708V22.5904H40.0196ZM41.5708 16.2074V18.3875H42.4198C43.0311 18.3875 43.4399 18.3474 43.6461 18.267C43.8522 18.1867 44.0137 18.0609 44.1308 17.8897C44.2478 17.7185 44.3063 17.5194 44.3063 17.2922C44.3063 17.0128 44.2242 16.7822 44.06 16.6005C43.8957 16.4188 43.688 16.3053 43.4363 16.2598C43.2511 16.2249 42.8791 16.2074 42.3201 16.2074H41.5708Z" fill="#242424"/>
<path d="M55.162 22.5904H53.4746L52.8037 20.8453H49.7328L49.0986 22.5904H47.4531L50.4455 14.9077H52.0858L55.162 22.5904ZM52.3058 19.5508L51.2472 16.7L50.2097 19.5508H52.3058Z" fill="#242424"/>
<path d="M59.0484 19.7657V18.4713H62.3918V21.5318C62.0669 21.8463 61.5961 22.1232 60.9795 22.3625C60.3628 22.6018 59.7383 22.7215 59.106 22.7215C58.3024 22.7215 57.602 22.553 57.0045 22.2157C56.4071 21.8786 55.9581 21.3965 55.6577 20.7694C55.3572 20.1423 55.207 19.4602 55.207 18.723C55.207 17.9229 55.3748 17.212 55.7101 16.5901C56.0455 15.9683 56.5364 15.4914 57.1827 15.1594C57.6753 14.9045 58.2885 14.7769 59.0222 14.7769C59.976 14.7769 60.7209 14.9769 61.2573 15.3769C61.7936 15.777 62.1385 16.3298 62.2923 17.0355L60.7516 17.3237C60.6433 16.9464 60.4398 16.6486 60.1411 16.4302C59.8424 16.2119 59.4694 16.1027 59.0222 16.1027C58.3444 16.1027 57.8055 16.3175 57.4056 16.7473C57.0055 17.1769 56.8056 17.8146 56.8056 18.6601C56.8056 19.5719 57.0081 20.2558 57.4135 20.7117C57.8187 21.1677 58.3498 21.3957 59.0066 21.3957C59.3315 21.3957 59.6573 21.332 59.9839 21.2044C60.3106 21.0768 60.591 20.9223 60.825 20.7406V19.7658H59.0485L59.0484 19.7657Z" fill="#242424"/>
<path d="M63.5587 22.5904V14.9077H66.8236C67.6445 14.9077 68.2411 14.9768 68.6132 15.1147C68.9853 15.2528 69.2831 15.4981 69.5067 15.851C69.7302 16.204 69.842 16.6074 69.842 17.0616C69.842 17.638 69.6726 18.1141 69.3338 18.4896C68.9948 18.8652 68.4882 19.1019 67.8139 19.1997C68.1493 19.3954 68.4262 19.6103 68.6446 19.8443C68.8629 20.0785 69.1572 20.4941 69.5276 21.0916L70.4657 22.5904H68.6105L67.489 20.9187C67.0908 20.3213 66.8182 19.9449 66.6715 19.7894C66.5248 19.6339 66.3693 19.5273 66.2051 19.4697C66.0408 19.412 65.7806 19.3832 65.4242 19.3832H65.1098V22.5904H63.5587ZM65.1099 18.1569H66.2576C67.0017 18.1569 67.4663 18.1254 67.6516 18.0626C67.8367 17.9997 67.9817 17.8914 68.0866 17.7377C68.1914 17.584 68.2437 17.3918 68.2437 17.1612C68.2437 16.9027 68.1747 16.6939 68.0368 16.535C67.8987 16.3761 67.704 16.2756 67.4524 16.2337C67.3267 16.2163 66.9493 16.2075 66.3205 16.2075H65.11V18.157L65.1099 18.1569Z" fill="#242424"/>
<path d="M70.7228 18.7964C70.7228 18.0139 70.8398 17.357 71.0739 16.8259C71.2486 16.4347 71.487 16.0836 71.7892 15.7726C72.0914 15.4617 72.4224 15.231 72.7823 15.0808C73.261 14.8783 73.8129 14.7769 74.4383 14.7769C75.5703 14.7769 76.476 15.128 77.1555 15.8302C77.835 16.5325 78.1748 17.5089 78.1748 18.7597C78.1748 19.9999 77.8376 20.9704 77.1634 21.6709C76.4891 22.3714 75.5877 22.7216 74.4592 22.7216C73.3168 22.7216 72.4084 22.3731 71.7341 21.6761C71.0598 20.979 70.7227 20.0192 70.7227 18.7964H70.7228ZM72.3212 18.7441C72.3212 19.614 72.5221 20.2735 72.9238 20.7224C73.3256 21.1714 73.8357 21.3957 74.454 21.3957C75.0724 21.3957 75.5799 21.173 75.9764 20.7276C76.3729 20.2821 76.5712 19.6139 76.5712 18.723C76.5712 17.8426 76.3781 17.1859 75.9922 16.7526C75.6061 16.3195 75.0934 16.1028 74.454 16.1028C73.8147 16.1028 73.2993 16.3221 72.9081 16.7605C72.5168 17.199 72.3212 17.8602 72.3212 18.7441Z" fill="#242424"/>
<path d="M26.8203 28.3885V24.9355H27.4986L28.9119 27.2414V24.9355H29.5597V28.3885H28.8601L27.468 26.1368V28.3885H26.8203Z" fill="#242424"/>
<path d="M33.0938 24.9355H33.7909V26.8057C33.7909 27.1024 33.7996 27.2949 33.8168 27.3828C33.8466 27.5241 33.9177 27.6375 34.03 27.7232C34.1423 27.8087 34.2958 27.8515 34.4905 27.8515C34.6884 27.8515 34.8375 27.8111 34.9381 27.7301C35.0385 27.6492 35.099 27.5499 35.1195 27.4321C35.1399 27.3144 35.1501 27.1189 35.1501 26.8456V24.9355H35.8472V26.7491C35.8472 27.1637 35.8284 27.4565 35.7907 27.6276C35.753 27.7988 35.6835 27.9432 35.5823 28.061C35.481 28.1789 35.3456 28.2726 35.176 28.3424C35.0064 28.4124 34.785 28.4473 34.5118 28.4473C34.1821 28.4473 33.932 28.4091 33.7616 28.333C33.5912 28.2569 33.4566 28.1579 33.3577 28.0362C33.2588 27.9145 33.1936 27.7869 33.1622 27.6534C33.1166 27.4556 33.0938 27.1635 33.0938 26.7772V24.9353L33.0938 24.9355Z" fill="#242424"/>
<path d="M39.0508 27.2648L39.7292 27.1989C39.77 27.4266 39.8528 27.5938 39.9776 27.7005C40.1024 27.8074 40.2709 27.8607 40.4829 27.8607C40.7074 27.8607 40.8766 27.8132 40.9904 27.7183C41.1043 27.6233 41.1612 27.5121 41.1612 27.3849C41.1612 27.3033 41.1372 27.2338 41.0894 27.1765C41.0414 27.1192 40.9578 27.0693 40.8385 27.0269C40.7569 26.9986 40.5708 26.9484 40.2803 26.8762C39.9066 26.7836 39.6443 26.6697 39.4936 26.5347C39.2816 26.3447 39.1757 26.1131 39.1757 25.8398C39.1757 25.664 39.2255 25.4995 39.3253 25.3464C39.425 25.1933 39.5687 25.0767 39.7564 24.9966C39.944 24.9165 40.1705 24.8765 40.4359 24.8765C40.8693 24.8765 41.1955 24.9715 41.4146 25.1614C41.6337 25.3514 41.7487 25.6051 41.7596 25.9222L41.0624 25.9528C41.0325 25.7754 40.9686 25.6478 40.8705 25.5701C40.7724 25.4923 40.6251 25.4535 40.4288 25.4535C40.2263 25.4535 40.0677 25.4951 39.9531 25.5783C39.8793 25.6317 39.8423 25.7031 39.8423 25.7927C39.8423 25.8743 39.8769 25.9442 39.946 26.0023C40.034 26.0761 40.2475 26.1531 40.5867 26.2331C40.9259 26.3133 41.1767 26.396 41.3392 26.4816C41.5017 26.5672 41.6289 26.6842 41.7208 26.8326C41.8127 26.981 41.8586 27.1643 41.8586 27.3826C41.8586 27.5805 41.8036 27.7657 41.6938 27.9385C41.5839 28.1112 41.4284 28.2397 41.2274 28.3236C41.0264 28.4075 40.776 28.4496 40.4761 28.4496C40.0395 28.4496 39.7043 28.3486 39.4704 28.1469C39.2364 27.9452 39.0966 27.6511 39.0511 27.2648H39.0508Z" fill="#242424"/>
<path d="M48.039 28.3885H47.2806L46.9791 27.6043H45.5988L45.3138 28.3885H44.5742L45.9192 24.9355H46.6564L48.039 28.3885ZM46.7553 27.0224L46.2795 25.7411L45.8132 27.0224H46.7553Z" fill="#242424"/>
<path d="M51.3008 28.3885V24.9355H51.9791L53.3924 27.2414V24.9355H54.0401V28.3885H53.3406L51.9485 26.1368V28.3885H51.3008Z" fill="#242424"/>
<path d="M57.9582 28.3885V25.5197H56.9336V24.9355H59.6777V25.5197H58.6554V28.3885H57.9582Z" fill="#242424"/>
<path d="M65.7655 28.3885H65.0071L64.7056 27.6043H63.3253L63.0404 28.3885H62.3008L63.6458 24.9355H64.383L65.7656 28.3885H65.7655ZM64.4819 27.0224L64.0061 25.7411L63.5397 27.0224H64.4819Z" fill="#242424"/>
<path d="M68.8594 28.3885V24.9355H70.3268C70.6958 24.9355 70.964 24.9666 71.1311 25.0286C71.2983 25.0906 71.4322 25.2009 71.5327 25.3595C71.6332 25.5181 71.6835 25.6995 71.6835 25.9036C71.6835 26.1628 71.6073 26.3767 71.4551 26.5455C71.3027 26.7143 71.075 26.8207 70.772 26.8647C70.9227 26.9526 71.0472 27.0492 71.1453 27.1543C71.2435 27.2595 71.3758 27.4464 71.5422 27.7149L71.9638 28.3886H71.13L70.6259 27.6373C70.447 27.3688 70.3245 27.1995 70.2585 27.1296C70.1925 27.0598 70.1226 27.0118 70.0489 26.9859C69.975 26.9601 69.858 26.9471 69.6979 26.9471H69.5566V28.3886H68.8594V28.3885ZM69.5566 26.3958H70.0724C70.4069 26.3958 70.6157 26.3817 70.699 26.3535C70.7822 26.3252 70.8474 26.2765 70.8945 26.2074C70.9416 26.1384 70.9651 26.052 70.9651 25.9484C70.9651 25.8322 70.9341 25.7384 70.8721 25.6669C70.81 25.5955 70.7225 25.5503 70.6094 25.5315C70.5528 25.5237 70.3833 25.5197 70.1006 25.5197H69.5565V26.396L69.5566 26.3958Z" fill="#242424"/>
<path d="M78.0976 28.3885H77.3392L77.0377 27.6043H75.6574L75.3724 28.3885H74.6328L75.9778 24.9355H76.715L78.0976 28.3885ZM76.8139 27.0224L76.338 25.7411L75.8717 27.0224H76.8139Z" fill="#242424"/>
<defs>
<linearGradient id="paint0_linear_5_12418" x1="0.326817" y1="14.5847" x2="10.3309" y2="17.6079" gradientUnits="userSpaceOnUse">
<stop stop-color="#2F905B"/>
<stop offset="0.996" stop-color="#6ABF5E"/>
</linearGradient>
<linearGradient id="paint1_linear_5_12418" x1="3.26612" y1="20.8004" x2="25.1065" y2="16.0366" gradientUnits="userSpaceOnUse">
<stop stop-color="#C46D2A"/>
<stop offset="0.174" stop-color="#C6712D"/>
<stop offset="0.36" stop-color="#CC7E36"/>
<stop offset="0.551" stop-color="#D69346"/>
<stop offset="0.747" stop-color="#E4B15B"/>
<stop offset="0.943" stop-color="#F6D777"/>
<stop offset="0.996" stop-color="#FCE380"/>
</linearGradient>
</defs>
</svg>
